<svg width="16" height="16" viewBox="0 0 16 16" fill="none" xmlns="http://www.w3.org/2000/svg">
<path d="M14.875 11.3814L12.375 9.9251C12.1074 9.76563 11.7899 9.71184 11.4846 9.77427C11.1794 9.8367 10.9085 10.0109 10.725 10.2626L9.36251 12.0751C8.11174 11.6292 6.9623 10.9387 5.98126 10.0439C5.08569 9.06097 4.39514 7.90935 3.95001 6.65637L5.76251 5.30011C6.01426 5.1166 6.18842 4.84571 6.25085 4.54049C6.31328 4.23527 6.25948 3.91774 6.10001 3.65012L4.61876 1.12511C4.53371 0.968294 4.41609 0.831491 4.27378 0.723904C4.13148 0.616317 3.9678 0.54043 3.79373 0.501354C3.61967 0.462279 3.43926 0.46093 3.26462 0.497368C3.08999 0.533806 2.92518 0.60719 2.78126 0.712612L1.92501 1.33761C1.49708 1.63708 1.14796 2.03564 0.907443 2.49926C0.666924 2.96289 0.542147 3.47782 0.543759 4.00012C0.482132 5.51889 0.752772 7.0328 1.33678 8.43615C1.92079 9.8395 2.8041 11.0985 3.92501 12.1251C4.95166 13.246 6.21062 14.1293 7.61397 14.7133C9.01732 15.2973 10.5312 15.568 12.05 15.5064V15.5064C12.5723 15.508 13.0872 15.3832 13.5509 15.1427C14.0145 14.9022 14.413 14.553 14.7125 14.1251L15.3375 13.2689C15.4503 13.1206 15.5284 12.949 15.5663 12.7666C15.6042 12.5842 15.6009 12.3957 15.5566 12.2148C15.5122 12.0338 15.428 11.8651 15.3101 11.7209C15.1922 11.5767 15.0435 11.4607 14.875 11.3814V11.3814Z" fill="#03050F"/>
</svg>
